<svg width="32" height="43" viewBox="0 0 32 43" fill="none" xmlns="http://www.w3.org/2000/svg">
<path d="M5.71627 4.47L5.56087 4.8L10.6223 6.28L15.6837 4.76L15.5505 4.47H5.71627Z" fill="#181818"/>
<path d="M32 35.95V15.61C31.9223 13.51 27.3493 11 21.6996 11C15.828 11 11.0995 13.56 11.0995 15.68V21.13H4.22893C3.67395 21.13 3.22997 20.72 3.22997 20.23V11.92C3.22997 11.42 3.68505 11.02 4.22893 11.02H11.0995V11H18.1811C17.8592 10.57 17.3042 10.29 16.6826 10.29H4.22893C3.22997 10.29 2.4197 11.02 2.4197 11.92V20.23C2.4197 21.13 3.22997 21.86 4.22893 21.86H11.0995V31.28C10.9331 31.28 10.7555 31.29 10.6001 31.29C6.13805 31.28 0.810267 30.16 0.810267 24.87V4.68C0.810267 3.29 4.8505 0.73 10.6001 0.73C16.4939 0.73 20.1013 3.29 20.1124 4.68V11H20.9116V4.61C20.8228 2.51 16.2497 0 10.6001 0C4.72841 0 0 2.56 0 4.68V24.86C0 29.46 3.76275 31.99 10.6001 32H10.6445C10.7888 32 10.9442 31.99 11.0995 31.99V35.86C11.0995 40.46 14.8623 42.99 21.6996 43H21.744C24.3191 43 27.8266 42.58 30.0243 40.61C31.3229 39.44 31.9778 37.87 32 35.95ZM21.6996 42.28C17.2376 42.27 11.9098 41.15 11.9098 35.86V15.68C11.9098 14.29 15.9501 11.73 21.6996 11.73C27.5935 11.73 31.2008 14.29 31.2119 15.68V35.86C31.2119 37.63 30.6126 39.06 29.4471 40.11C27.4381 41.91 24.1415 42.31 21.6996 42.28Z" fill="#181818"/>
<path d="M21.7218 17.28L26.7832 15.76L26.65 15.47H16.8158L16.6604 15.8L21.7218 17.28Z" fill="#181818"/>
<path d="M27.7822 21.29H15.3285C14.3295 21.29 13.5193 22.02 13.5193 22.92V31.23C13.5193 32.13 14.3295 32.86 15.3285 32.86H27.7822C28.7811 32.86 29.5914 32.13 29.5914 31.23V22.92C29.5914 22.02 28.7811 21.29 27.7822 21.29ZM28.7922 31.22C28.7922 31.72 28.3372 32.12 27.7933 32.12H15.3285C14.7735 32.12 14.3295 31.71 14.3295 31.22V22.91C14.3295 22.41 14.7846 22.01 15.3285 22.01H27.7822C28.3372 22.01 28.7811 22.42 28.7811 22.91V31.22H28.7922Z" fill="#181818"/>
</svg>
