<svg width="32" height="32" viewBox="0 0 32 32" fill="none" xmlns="http://www.w3.org/2000/svg">
<path fill-rule="evenodd" clip-rule="evenodd" d="M2.88941 22.3221C3.46354 27.3127 7.95293 31.1396 14.4283 32L14.5695 31.1887C8.1035 30.3365 3.76469 26.3293 3.76469 21.2322V5.83459C3.76469 2.97467 6.43763 0.819458 9.98592 0.819458H11.3224V0H9.98592C5.90115 0 2.82352 2.50757 2.82352 5.83459V7.99792L1.15764 9.10425C0.423549 9.59589 0 10.317 0 11.0873V18.5444C0 19.1262 0.254115 19.6999 0.724701 20.1588L2.88941 22.3221ZM1.73177 9.75159L2.82352 9.03046V21.0192L1.43062 19.6261C1.11061 19.3147 0.941172 18.9296 0.941172 18.5444V11.0873C0.941172 10.571 1.23293 10.0876 1.73177 9.75159Z" fill="#121212"/>
<path d="M29.2047 28.6894H30.1459V25.4033H29.2047V28.6894Z" fill="#121212"/>
<path d="M21.6753 21.8961C21.6753 22.8876 22.6071 23.6907 23.7647 23.6907V22.863C23.1341 22.863 22.6165 22.4287 22.6165 21.8878V8.89935C22.6165 8.35852 23.1341 7.91602 23.7647 7.91602V7.09656C22.6165 7.09656 21.6753 7.90784 21.6753 8.89935V21.8961Z" fill="#121212"/>
<path fill-rule="evenodd" clip-rule="evenodd" d="M29.4212 31.9754H32V22.3877L30.1835 21.4617V9.64508L32 8.66992V0H23.1624C19.0871 0 16 2.54852 16 5.92468V21.3224C16 27.493 21.6471 31.9754 29.4212 31.9754ZM16.9412 5.92468C16.9412 3.01562 19.6141 0.819458 23.1624 0.819458H31.0588V3.28613H27.2941V4.10559L31.0588 5.75854V8.211L29.5624 9.02228H25.4024C24.3482 9.02228 23.5482 9.68604 23.5482 10.5629V20.3555C23.5482 21.1913 24.3106 22.1255 25.4024 22.1255H29.6377L31.0588 22.8548V31.1559H29.4212C22.193 31.1559 16.9412 27.0177 16.9412 21.3224V5.92468ZM24.4894 10.5629C24.4894 10.145 24.8753 9.84174 25.4024 9.84174H29.1765V21.3142H25.4024C24.9412 21.3142 24.4894 20.8471 24.4894 20.3636V10.5629Z" fill="#121212"/>
</svg>
