<svg width="32" height="32" viewBox="0 0 32 32" fill="none" xmlns="http://www.w3.org/2000/svg">
<path d="M16.1954 31.9892C15.5141 31.9892 14.8328 31.9784 14.1407 31.9784C13.2755 31.9675 12.4103 31.9351 11.5343 31.8918C10.7773 31.8594 10.0203 31.8161 9.26328 31.762C8.25753 31.6971 7.08955 31.5997 5.95402 31.34C5.07804 31.1453 4.33184 30.864 3.69378 30.4962C2.67721 29.9228 1.89856 29.1005 1.35783 28.0511C0.946876 27.2397 0.665697 26.3309 0.481849 25.1732C0.352075 24.3618 0.287187 23.5504 0.233114 22.8039C0.179041 22.0249 0.135783 21.2459 0.103339 20.467C0.0817101 19.9801 0.0708955 19.5041 0.0492664 19.028L0.0384518 18.6169C-0.00480648 17.2537 -0.00480648 15.9122 0.0060081 14.787C0.0060081 14.1054 0.0276372 13.4238 0.0492664 12.7422C0.0708955 12.0823 0.0925247 11.4223 0.135783 10.7624L0.146598 10.4919C0.20067 9.77783 0.243929 9.05295 0.308816 8.32808C0.384518 7.4842 0.492664 6.49968 0.763028 5.51515C1.04421 4.47653 1.44435 3.62183 2.0067 2.9186C2.68802 2.04226 3.59645 1.40394 4.76442 0.982C5.55389 0.689887 6.40824 0.505965 7.54377 0.365318C8.39812 0.267947 9.24166 0.213852 10.0311 0.170576C10.7881 0.1273 11.5452 0.0948435 12.313 0.0623866C13.6324 0.00829173 14.8003 -0.0133462 15.9142 0.00829174H16.4982C16.9416 0.00829174 17.385 0.00829174 17.8284 0.00829174C18.7369 0.0299297 19.6561 0.0515676 20.5645 0.0948435C21.2999 0.1273 22.0353 0.170576 22.7707 0.224671C23.6683 0.278766 24.7173 0.365318 25.7555 0.581697C26.7505 0.776439 27.5832 1.07937 28.3078 1.47967C29.1837 1.96653 29.8867 2.64812 30.4058 3.492C30.8924 4.28179 31.2169 5.17976 31.4332 6.32657C31.5954 7.14882 31.6711 7.94942 31.7252 8.63101C31.8009 9.51817 31.8549 10.4161 31.8874 11.3033C31.9306 12.3636 31.9631 13.4346 31.9847 14.5057C31.9955 15.3604 32.0063 16.2151 31.9955 17.0806C31.9847 17.7514 31.9739 18.4222 31.9523 19.093C31.9198 19.926 31.8874 20.7483 31.8441 21.5813C31.8117 22.2196 31.7684 22.858 31.7143 23.5071C31.6278 24.5457 31.4981 25.6493 31.1736 26.742C30.7951 28.0294 30.2003 29.0248 29.3568 29.7821C28.7944 30.2906 28.1347 30.6909 27.3561 30.983C26.599 31.2751 25.7771 31.4699 24.7498 31.6105C23.8954 31.7187 23.0411 31.7836 22.2408 31.8269C21.5486 31.8702 20.8457 31.9026 20.1536 31.9351C19.602 31.9567 19.0505 31.9784 18.4989 31.9892L18.1204 32C17.4824 31.9892 16.8335 31.9892 16.1954 31.9892ZM15.1572 1.07937C14.2812 1.07937 13.3512 1.10101 12.3454 1.14428C11.5884 1.17674 10.8314 1.2092 10.0852 1.25247C9.31736 1.29575 8.49545 1.33903 7.67354 1.4364C6.62453 1.56622 5.84588 1.73933 5.13212 1.99898C4.1588 2.35601 3.40178 2.87532 2.83943 3.58937C2.38521 4.1736 2.03915 4.89847 1.80123 5.79644C1.56331 6.69442 1.45516 7.63567 1.37946 8.42545C1.31457 9.13951 1.27131 9.85356 1.23887 10.5784L1.22806 10.8489C1.19561 11.498 1.16317 12.1472 1.14154 12.7963C1.11991 13.4671 1.09828 14.1379 1.09828 14.8086C1.08747 15.923 1.08747 17.2429 1.13072 18.5953L1.14154 19.0064C1.15235 19.4824 1.17398 19.9585 1.19561 20.4345C1.22806 21.2027 1.27131 21.9708 1.32539 22.7498C1.36864 23.4746 1.43353 24.2428 1.56331 25.0218C1.72553 26.0604 1.97426 26.8718 2.33114 27.575C2.77454 28.4406 3.39097 29.1005 4.23451 29.5765C4.78605 29.8903 5.43492 30.1283 6.20276 30.3014C7.26259 30.5394 8.33323 30.626 9.3498 30.6909C10.096 30.745 10.8422 30.7883 11.5992 30.8207C12.4536 30.8532 13.3079 30.8965 14.1731 30.9073C15.5033 30.9289 16.8119 30.9397 18.1204 30.8965L18.4989 30.8856C19.0397 30.8748 19.5912 30.8532 20.1319 30.8316C20.8241 30.7991 21.5054 30.7666 22.1975 30.7234C22.9762 30.6801 23.8089 30.6152 24.6308 30.507C25.5608 30.388 26.3179 30.2041 26.9884 29.9444C27.6481 29.6956 28.1888 29.371 28.643 28.949C29.3243 28.3215 29.8218 27.4885 30.1462 26.4066C30.4382 25.4112 30.5572 24.3726 30.6437 23.3881C30.6978 22.7606 30.7302 22.1331 30.7627 21.5056C30.8059 20.6834 30.8384 19.8611 30.8708 19.0389C30.8924 18.3789 30.9032 17.719 30.9141 17.059C30.9249 16.2151 30.9249 15.3604 30.9032 14.5165C30.8924 13.4563 30.86 12.4068 30.8059 11.3466C30.7627 10.4702 30.7194 9.58309 30.6437 8.70675C30.5896 8.05761 30.5139 7.28946 30.3625 6.52131C30.1679 5.50433 29.8867 4.71455 29.4649 4.04377C29.0431 3.36217 28.47 2.81041 27.7562 2.4101C27.129 2.05308 26.4152 1.80424 25.5284 1.63114C24.5551 1.4364 23.5493 1.34984 22.695 1.29575C21.9704 1.25247 21.235 1.19838 20.5104 1.16592C19.602 1.12265 18.7044 1.10101 17.796 1.07937C17.3634 1.07937 16.9308 1.07937 16.4982 1.07937H15.9034C15.6547 1.07937 15.406 1.07937 15.1572 1.07937Z" fill="#121212"/>
<path fill-rule="evenodd" clip-rule="evenodd" d="M12.2915 16.6154V15.382H19.7103V16.6154H12.2915Z" fill="#121212"/>
</svg>
