<svg width="34" height="31" viewBox="0 0 34 31" fill="none" xmlns="http://www.w3.org/2000/svg">
<path d="M32.2929 29.5535H1" stroke="#121212"/>
<path fill-rule="evenodd" clip-rule="evenodd" d="M16.3139 22.9217H13.9205L22.0634 14.9641L30.2062 22.9217H27.8007V29.5534H16.3261L16.3139 22.9217Z" stroke="#121212"/>
<path d="M23.4205 25.1427H20.7062V29.2141H23.4205V25.1427Z" fill="#121212"/>
<path d="M8.15259 29.4177V20.3927" stroke="#121212"/>
<path d="M8.15259 20.3927C12.0876 20.3927 15.2776 17.2027 15.2776 13.2677C15.2776 9.33267 12.0876 6.1427 8.15259 6.1427C4.21756 6.1427 1.02759 9.33267 1.02759 13.2677C1.02759 17.2027 4.21756 20.3927 8.15259 20.3927Z" stroke="#121212"/>
<path fill-rule="evenodd" clip-rule="evenodd" d="M30.4391 5.22387C30.4021 4.2819 29.9993 3.66929 29.2307 3.38604C28.4621 3.1028 27.7693 3.26581 27.1521 3.8751C26.4396 2.64688 25.5731 1.46631 23.6527 1.46631C23.5143 1.46631 23.3704 1.47581 23.2008 1.49684C21.4691 1.70313 20.0488 3.06909 19.7469 4.81777L19.738 4.86459L19.6953 4.87409C18.6103 5.10888 17.8523 6.06499 17.8523 7.19956C17.8523 7.23417 17.855 7.2681 17.857 7.2966L17.8591 7.33867C17.8598 7.34477 17.8598 7.3502 17.8611 7.35631C17.9405 8.6042 18.9584 9.57999 20.1839 9.57999H30.4391C31.668 9.57999 32.6682 8.55942 32.6682 7.30474C32.6682 6.04938 31.668 5.22387 30.4391 5.22387Z" stroke="#121212"/>
</svg>
