<svg width="32" height="32" viewBox="0 0 32 32" fill="none" xmlns="http://www.w3.org/2000/svg">
<path d="M0 6.61716C0.0440816 6.38886 0.0728162 6.15631 0.135184 5.93323C0.386285 5.03504 0.896652 4.36222 1.82628 4.09243C2.06236 4.02384 2.31869 4 2.56587 3.99935C4.79706 3.99314 7.02824 3.99706 9.25942 3.99576C9.32178 3.99576 9.38709 3.97648 9.44587 3.95362C12.2537 2.85587 15.0612 1.75649 17.8687 0.657435C18.3788 0.457873 18.8885 0.257659 19.3979 0.0571182C19.7025 -0.0627491 19.9082 0.00583982 20.0163 0.264845C20.1358 0.551612 20.0215 0.859609 19.743 0.97229C19.2806 1.15911 18.8153 1.3394 18.351 1.52133C15.024 2.82419 11.6966 4.12673 8.3693 5.42926C7.11705 5.91951 5.86416 6.40878 4.61191 6.89837C4.3213 7.01203 4.11689 6.93659 4.01044 6.67562C3.89812 6.40127 4.00587 6.09262 4.26383 5.98712C4.6955 5.81075 5.13142 5.64483 5.56538 5.47401C5.92358 5.33324 6.28179 5.19214 6.63999 5.05072C6.66742 5.03994 6.69322 5.02394 6.71379 4.98572C6.66187 4.98572 6.60995 4.98572 6.55803 4.98572C5.24114 4.98572 3.92424 4.9854 2.60734 4.98572C1.66073 4.98605 1.02792 5.52921 0.885223 6.46888C0.820244 6.89739 0.825142 7.32395 0.940734 7.74626C1.1569 8.53438 1.71069 8.97335 2.52473 8.99491C2.58449 8.99654 2.64457 8.99523 2.70432 8.99523C11.15 8.99523 19.5957 8.99523 28.0414 8.99621C28.1825 8.99621 28.3272 8.99131 28.464 9.01842C29.0178 9.12751 29.4031 9.59424 29.4517 10.205C29.4664 10.3892 29.4746 10.5744 29.4746 10.7593C29.4762 12.6154 29.4756 14.4716 29.4752 16.3277C29.4752 16.4038 29.4736 16.4802 29.4635 16.5554C29.4223 16.8549 29.26 16.9966 28.96 16.9966C27.3655 16.9969 25.7711 16.9969 24.1766 16.9969C23.661 16.9969 23.5765 17.0825 23.5765 17.6061C23.5765 19.2009 23.5765 20.7958 23.5765 22.3906C23.5765 22.4452 23.5755 22.4997 23.5784 22.554C23.5957 22.8665 23.7133 22.9893 24.0232 22.9897C26.2543 22.9919 28.4855 22.9919 30.7167 22.9893C31.0289 22.989 31.1516 22.8642 31.152 22.5507C31.1539 20.5094 31.1539 18.4683 31.1516 16.427C31.1513 16.1311 31.0321 16.0116 30.7425 15.991C30.4793 15.972 30.2955 15.7388 30.3193 15.454C30.3445 15.1545 30.5433 14.9732 30.8205 14.9977C31.4409 15.0526 31.8579 15.4537 31.9667 16.0984C31.9735 16.1396 31.9889 16.1794 32.0003 16.2199C32.0003 18.3975 32.0003 20.5747 32.0003 22.7522C31.9774 22.8463 31.9562 22.9403 31.9317 23.0341C31.7737 23.6396 31.3231 23.9911 30.6981 23.9914C28.4888 23.9924 26.2795 23.992 24.0698 23.9917C23.3407 23.9917 22.8343 23.5361 22.7611 22.8107C22.7432 22.6323 22.734 22.4524 22.7337 22.2734C22.7317 20.7112 22.7265 19.149 22.7383 17.5868C22.7402 17.3196 22.7827 17.042 22.8653 16.7886C23.0308 16.2804 23.4625 15.9936 23.9964 15.9929C25.471 15.9913 26.9459 15.9923 28.4205 15.9923C28.4852 15.9923 28.5495 15.9923 28.6364 15.9923C28.6364 15.924 28.6364 15.8665 28.6364 15.8091C28.6364 14.0672 28.6364 12.3254 28.636 10.5836C28.636 10.513 28.6383 10.4415 28.6289 10.3716C28.5926 10.1038 28.48 10.0019 28.2106 9.98912C28.1453 9.98585 28.08 9.98814 28.0147 9.98814C19.5908 9.98814 11.1667 9.98553 2.74285 9.99271C2.0333 9.99337 1.39918 9.84051 0.861387 9.32119C0.85453 9.37672 0.846366 9.41101 0.846366 9.44531C0.846693 16.0151 0.845387 22.5853 0.851591 29.1551C0.851917 29.6732 1.00147 30.1549 1.37339 30.54C1.64571 30.8222 1.98596 30.9639 2.37616 30.9852C2.5009 30.992 2.62628 30.993 2.75134 30.993C11.1752 30.9933 19.5993 30.9933 28.0232 30.9933C28.5515 30.9933 28.6357 30.9094 28.6357 30.3796C28.6357 28.7792 28.6354 27.1791 28.637 25.5787C28.637 25.4876 28.6439 25.3926 28.6707 25.3063C28.7334 25.1045 28.896 24.9918 29.0824 25.0029C29.2532 25.0134 29.4063 25.1499 29.4504 25.3436C29.4697 25.4275 29.4778 25.5157 29.4782 25.6022C29.4798 27.2134 29.4801 28.8246 29.4785 30.4358C29.4782 30.7533 29.4396 31.0662 29.2881 31.3523C29.0716 31.7612 28.7324 31.98 28.2671 31.9964C28.2129 31.9983 28.1583 31.998 28.1038 31.998C19.6036 31.998 11.1037 31.997 2.60343 32.0003C2.06008 32.0006 1.55722 31.8853 1.11575 31.5613C0.50351 31.1106 0.199183 30.477 0.065306 29.747C0.043102 29.6255 0.0218775 29.5036 0 29.3821C0 21.7936 0 14.2054 0 6.61716Z" fill="#121212"/>
<path d="M24.4418 4.68632C24.5783 5.16416 24.7099 5.61619 24.835 6.06986C24.8722 6.20475 24.9081 6.34421 24.9133 6.4827C24.9225 6.72733 24.7582 6.92395 24.5483 6.95204C24.3481 6.97915 24.1708 6.85079 24.1003 6.60779C23.8573 5.76937 23.6203 4.92932 23.3806 4.08992C23.2454 3.61633 23.1102 3.14274 22.9711 2.65543C22.5022 2.82462 22.0441 2.98923 21.5866 3.15483C18.1355 4.40216 14.6841 5.6495 11.2327 6.89651C10.9137 7.01181 10.6952 6.92689 10.5986 6.6496C10.4964 6.35662 10.6306 6.0679 10.9192 5.96371C12.77 5.29513 14.6208 4.6272 16.4715 3.95895C18.6436 3.17442 20.8157 2.3899 22.9875 1.60504C23.362 1.46983 23.5504 1.56128 23.6611 1.94309C23.8152 2.47416 23.9677 3.00556 24.113 3.53925C24.1427 3.64834 24.1868 3.68361 24.3014 3.68263C24.9489 3.67643 25.5964 3.67969 26.2436 3.67969C27.0404 3.67969 27.6079 4.14512 27.7519 4.92899C27.7842 5.10406 27.7891 5.28533 27.791 5.46399C27.7963 5.9428 27.7933 6.42195 27.7924 6.90076C27.7924 6.97131 27.7943 7.04349 27.7816 7.11241C27.7427 7.32503 27.5537 7.49454 27.3692 7.48997C27.17 7.48507 26.9773 7.29531 26.9711 7.06537C26.9594 6.63032 26.9656 6.19495 26.9613 5.75957C26.9597 5.57504 26.9656 5.38854 26.9421 5.20596C26.8983 4.86367 26.687 4.68697 26.3478 4.68665C25.7231 4.68567 25.0978 4.68632 24.4418 4.68632Z" fill="#121212"/>
<path d="M27.7897 19.9954C27.7835 20.2821 27.6993 20.5389 27.4942 20.7469C27.1905 21.0552 26.7677 21.0709 26.4425 20.7884C26.003 20.4063 25.9997 19.5851 26.4356 19.1974C26.7984 18.8751 27.3094 18.942 27.5941 19.3526C27.7277 19.5446 27.7923 19.7599 27.7897 19.9954Z" fill="#121212"/>
</svg>
