<svg width="32" height="32" viewBox="0 0 32 32" fill="none" xmlns="http://www.w3.org/2000/svg">
<path fill-rule="evenodd" clip-rule="evenodd" d="M13.1258 13.2676H18.2775V12.0588H13.1258V13.2676Z" fill="#121212"/>
<path d="M4.5952 32C4.58946 32 4.57799 32 4.57225 32C1.62352 31.994 0 30.7005 0 28.3613V18.4303C0 17.4209 1.72105 16.2241 3.96415 16.0307C3.95841 15.8494 3.95267 15.6559 3.94693 15.4686L3.92972 14.7674C3.8953 13.6855 3.90104 12.6156 3.90678 11.709C3.91251 11.165 3.92399 10.621 3.9412 10.077C3.95841 9.55111 3.97562 9.02524 4.0043 8.49938L4.01578 8.29992C4.0502 7.71361 4.07888 7.1273 4.13051 6.541C4.18788 5.87611 4.27393 5.09034 4.46899 4.31061C4.67551 3.49462 4.97383 2.83578 5.38688 2.28574C5.89745 1.60272 6.56866 1.10708 7.43492 0.77464C8.02582 0.544953 8.66834 0.399888 9.51739 0.291088C10.1657 0.212511 10.8024 0.1702 11.3933 0.133934C11.967 0.0976677 12.5464 0.0734901 13.1259 0.0493125C14.1355 0.00700173 15.0247 -0.0111315 15.8508 0.00700173H16.2926C16.6311 0.00700173 16.9695 0.00700173 17.3023 0.0130461C17.9964 0.0251349 18.6848 0.0493125 19.379 0.0795345C19.9125 0.103712 20.4518 0.139978 20.9853 0.176245L21.0541 0.182289C21.7655 0.230644 22.5342 0.297133 23.303 0.460332C24.043 0.617486 24.6683 0.847173 25.2019 1.16148C25.8501 1.54228 26.3664 2.06814 26.7508 2.72698C27.1065 3.33746 27.3532 4.04466 27.5195 4.95132C27.64 5.60411 27.6974 6.23878 27.7375 6.78277C27.7949 7.49601 27.8351 8.20925 27.8638 8.92249C27.8982 9.77475 27.9269 10.627 27.9383 11.4793C27.9498 12.1623 27.9498 12.8513 27.9441 13.5344C27.9383 14.0663 27.9326 14.6042 27.9154 15.1361C27.9039 15.4142 27.9039 15.7103 27.8982 16.0126C27.8924 16.345 27.8867 16.6835 27.8752 17.0038C28.0531 17.0703 28.208 17.1731 28.3284 17.3C28.5579 17.0522 28.9136 16.9071 29.3439 16.9071H30.6977C31.4607 16.9071 32 17.3786 32 18.0556V30.1444C32 30.8516 31.4263 31.4016 30.6977 31.4016H29.3439C28.9308 31.4016 28.5636 31.2263 28.3284 30.9422C28.0932 31.2263 27.7261 31.4016 27.313 31.4016H25.9591C25.2306 31.4016 24.6569 30.8455 24.6569 30.1444V24.8978C22.4425 25.1819 20.578 25.2303 19.7576 25.2484C19.6199 25.2545 19.5109 25.2545 19.4306 25.2605C19.3962 26.5419 19.1782 28.2525 18.2603 29.2679C17.744 29.8361 17.067 30.1262 16.2524 30.1262C15.4263 30.1262 14.7436 29.8301 14.2273 29.2498C13.4987 28.4338 13.1086 27.0919 13.0685 25.2545C12.971 25.2545 12.862 25.2484 12.7357 25.2484C11.9441 25.2363 10.6475 25.2182 9.04123 25.0852V28.3613C9.04123 29.3646 8.74866 30.1806 8.16924 30.7911C7.21119 31.7884 5.7024 32 4.5952 32ZM4.57799 16.611C2.22589 16.611 0.573682 17.7896 0.573682 18.4303V28.3613C0.573682 30.8637 2.74794 31.3956 4.57799 31.3956C5.55898 31.3835 6.93582 31.2203 7.75619 30.362C8.22661 29.8724 8.46181 29.1954 8.46181 28.3613V18.4303C8.46181 17.8078 6.94729 16.611 4.57799 16.611ZM28.6095 30.1202C28.6095 30.5312 28.9767 30.773 29.3381 30.773H30.692C31.0477 30.773 31.4206 30.5252 31.4206 30.1202V18.0314C31.4206 17.5176 30.8125 17.4874 30.692 17.4874H29.3381C29.2176 17.4874 28.6095 17.5116 28.6095 18.0314V30.1202ZM25.9591 17.4934C25.8387 17.4934 25.2305 17.5176 25.2305 18.0374V30.1262C25.2305 30.5373 25.5977 30.779 25.9591 30.779H27.313C27.6687 30.779 28.0416 30.5312 28.0416 30.1262V18.0374C28.0416 17.5237 27.4335 17.4934 27.313 17.4934H25.9591ZM16.2467 20.0684C14.2904 20.0684 13.7569 22.1658 13.6594 23.9186C13.493 26.8864 14.1011 28.2283 14.6404 28.8327C15.0534 29.2921 15.5755 29.5158 16.2467 29.5158C16.9122 29.5158 17.4342 29.2982 17.8415 28.8448C18.6103 27.9926 18.9487 26.3364 18.834 23.9186C18.7824 22.7581 18.4209 20.0684 16.2467 20.0684ZM19.4077 23.8884C19.4191 24.0758 19.4306 24.3357 19.4306 24.65L24.6569 24.2692V18.0314C24.6569 17.3544 25.1904 16.883 25.9591 16.883H27.3015C27.313 16.5868 27.313 16.2846 27.3188 15.9823C27.3245 15.6801 27.3245 15.3779 27.336 15.0938C27.3532 14.5619 27.3589 14.0361 27.3646 13.5041C27.3704 12.8211 27.3704 12.1442 27.3589 11.4672C27.3474 10.621 27.3188 9.77475 27.2843 8.93458C27.2556 8.22738 27.2155 7.52623 27.1581 6.81904C27.118 6.29318 27.0606 5.67665 26.9459 5.05407C26.8024 4.22599 26.5787 3.57924 26.2574 3.03525C25.9247 2.46707 25.4772 2.01374 24.915 1.6813C24.4274 1.39117 23.8767 1.1917 23.1825 1.04664C22.4482 0.889484 21.7024 0.822995 21.014 0.780685L20.9451 0.77464C20.4116 0.738374 19.8838 0.702107 19.3503 0.67793C18.6619 0.647708 17.9735 0.62353 17.285 0.611442C16.9581 0.599353 16.6253 0.599353 16.2926 0.599353H15.8451C15.0247 0.587264 14.147 0.599353 13.1431 0.641664C12.5694 0.665841 11.9957 0.696063 11.422 0.726285C10.8369 0.762551 10.2115 0.804862 9.5805 0.883439C8.77734 0.986194 8.17497 1.12522 7.62424 1.33677C6.86124 1.63294 6.27035 2.0621 5.82861 2.65445C5.46719 3.138 5.19756 3.73035 5.01398 4.46777C4.82467 5.19914 4.74435 5.95469 4.69272 6.5954C4.65256 7.17566 4.61814 7.75592 4.58946 8.33618L4.57799 8.54169C4.5493 9.06151 4.53209 9.58133 4.51488 10.1011C4.49767 10.6391 4.4862 11.177 4.48046 11.715C4.47472 12.6156 4.46899 13.6794 4.50341 14.7493L4.52062 15.4504C4.52635 15.6378 4.53209 15.8252 4.53209 16.0065C7.05056 15.9823 9.02976 17.3061 9.02976 18.4303V24.4626L13.0513 24.6379C13.057 24.3961 13.0627 24.1423 13.08 23.8824C13.2406 21.0294 14.365 19.4639 16.2409 19.4639C18.1226 19.4639 19.2757 21.0778 19.4077 23.8884ZM6.59161 27.0073H2.38078C1.96199 27.0073 1.61778 26.5903 1.61778 26.0825V21.9965C1.61778 21.4888 1.96199 21.0717 2.38078 21.0717H6.59161C7.0104 21.0717 7.35461 21.4888 7.35461 21.9965V26.0825C7.35461 26.5903 7.0104 27.0073 6.59161 27.0073ZM2.38078 21.6701C2.29473 21.6701 2.19147 21.8091 2.19147 21.9905V26.0765C2.19147 26.2578 2.28899 26.3968 2.38078 26.3968H6.59161C6.6834 26.3968 6.78093 26.2578 6.78093 26.0765V21.9965C6.78093 21.8152 6.6834 21.6762 6.59161 21.6762H2.38078V21.6701ZM16.5106 26.8139H15.9369V24.2692H14.4683V23.6648H15.9369V21.0113H16.5106V23.6648H18.0022V24.2692H16.5106V26.8139Z" fill="#121212"/>
</svg>
